<?xml version="1.0" encoding="utf-8"?>
<!-- Generator: Adobe Illustrator 19.2.0, SVG Export Plug-In . SVG Version: 6.00 Build 0)  -->
<svg version="1.1" xmlns="http://www.w3.org/2000/svg" xmlns:xlink="http://www.w3.org/1999/xlink" x="0px" y="0px"
	 viewBox="0 0 52 52" style="enable-background:new 0 0 52 52;" xml:space="preserve">
<style type="text/css">
	.st0{fill:#00BFD6;}
	.st1{fill:#FFFFFF;}
</style>
<g id="Layer_1">
</g>
<g id="Layer_2">
	
		<rect x="24.5" y="24.6" transform="matrix(4.004403e-011 -1 1 4.004403e-011 -24.5464 76.5464)" class="st0" width="2.9" height="52"/>
	<g>
		<path class="st1" d="M38.4,6.4H13.6c-2.3,0-4.2,1.9-4.2,4.2v16c0,2.3,1.9,4.2,4.2,4.2h24.8c2.3,0,4.2-1.9,4.2-4.2v-16
			C42.6,8.3,40.7,6.4,38.4,6.4L38.4,6.4z M37.8,12.5l-9.5,9.6c-0.6,0.6-1.4,1-2.3,1c-0.9,0-1.7-0.4-2.3-1l-9.5-9.6
			c-0.6-0.6-0.6-1.5,0-2c0.6-0.6,1.5-0.6,2,0c0,0,7.1,7.2,9.5,9.6c0.2,0.2,0.4,0.1,0.5,0c2.4-2.4,9.5-9.6,9.5-9.6
			c0.6-0.6,1.5-0.6,2,0C38.3,11,38.3,11.9,37.8,12.5L37.8,12.5z M37.8,12.5"/>
	</g>
</g>
</svg>
