<?xml version="1.0" encoding="utf-8"?>
<!-- Generator: Adobe Illustrator 19.2.0, SVG Export Plug-In . SVG Version: 6.00 Build 0)  -->
<svg version="1.1" xmlns="http://www.w3.org/2000/svg" xmlns:xlink="http://www.w3.org/1999/xlink" x="0px" y="0px"
	 viewBox="0 0 52 52" style="enable-background:new 0 0 52 52;" xml:space="preserve">
<style type="text/css">
	.st0{fill:#00BFD6;}
	.st1{fill:#FFFFFF;}
</style>
<g id="Layer_1">
</g>
<g id="Layer_2">
	
		<rect x="24.5" y="24.5" transform="matrix(4.378193e-011 -1 1 4.378193e-011 -24.5459 76.5459)" class="st0" width="2.9" height="52"/>
	<g>
		<path class="st1" d="M29.9,11.4c0.7,0,1.1-0.4,1-1.1c-0.5-2.8-1.1-5.1-1.9-6.9c-0.3-0.6-1.1-1.2-1.7-1.2c-0.4,0-0.9-0.1-1.3-0.1
			c-0.5,0-0.9,0-1.3,0.1c-0.7,0.1-1.5,0.6-1.7,1.2c-0.8,1.8-1.4,4.1-1.9,6.9c-0.1,0.7,0.4,1.2,1,1.1c1.3-0.1,2.6-0.1,3.9-0.1
			C27.3,11.3,28.6,11.3,29.9,11.4L29.9,11.4z M29.9,11.4"/>
		<path class="st1" d="M18.7,14.8c0-0.7-0.4-1.1-1.1-1c-2.8,0.5-5.1,1.1-6.9,1.9c-0.6,0.3-1.2,1.1-1.2,1.7c0,0.4-0.1,0.9-0.1,1.3
			c0,0.5,0,0.9,0.1,1.3c0.1,0.7,0.6,1.5,1.2,1.7c1.8,0.8,4.1,1.4,6.9,1.9c0.7,0.1,1.2-0.4,1.1-1c-0.1-1.3-0.1-2.6-0.1-3.9
			C18.5,17.4,18.6,16.1,18.7,14.8L18.7,14.8z M18.7,14.8"/>
		<path class="st1" d="M22.1,26.1c-0.7,0-1.1,0.4-1,1.1c0.5,2.8,1.1,5.1,1.9,6.9c0.3,0.6,1.1,1.2,1.7,1.2c0.4,0,0.9,0.1,1.3,0.1
			c0.5,0,0.9,0,1.3-0.1c0.7-0.1,1.5-0.6,1.7-1.2c0.8-1.8,1.4-4.1,1.9-6.9c0.1-0.7-0.4-1.2-1-1.1c-1.3,0.1-2.6,0.1-3.9,0.1
			C24.7,26.2,23.4,26.2,22.1,26.1L22.1,26.1z M22.1,26.1"/>
		<path class="st1" d="M30.2,13.3c-1.3-0.1-2.7-0.2-4.2-0.2c-1.4,0-2.8,0.1-4.2,0.2c-0.7,0.1-1.3,0.6-1.3,1.3
			c-0.1,1.3-0.2,2.7-0.2,4.2c0,1.4,0.1,2.8,0.2,4.2c0.1,0.7,0.6,1.3,1.3,1.3c1.3,0.1,2.7,0.2,4.2,0.2c1.4,0,2.8-0.1,4.2-0.2
			c0.7-0.1,1.3-0.6,1.3-1.3c0.1-1.3,0.2-2.7,0.2-4.2c0-1.4-0.1-2.8-0.2-4.2C31.4,13.9,30.8,13.3,30.2,13.3L30.2,13.3z M30.2,13.3"/>
		<path class="st1" d="M19.1,10.5C19.5,8.1,20,5.9,20.7,4c0.2-0.6-0.1-1-0.7-0.7c-4.3,1.7-7.8,5.1-9.5,9.5c-0.2,0.6,0.1,0.9,0.7,0.7
			c1.9-0.7,4.1-1.2,6.5-1.6C18.4,11.8,19,11.2,19.1,10.5L19.1,10.5z M19.1,10.5"/>
		<path class="st1" d="M17.8,25.6c-2.4-0.4-4.6-0.9-6.5-1.6c-0.6-0.2-1,0.1-0.7,0.7c1.7,4.3,5.1,7.8,9.5,9.5
			c0.6,0.2,0.9-0.1,0.7-0.7c-0.7-1.9-1.2-4.1-1.6-6.5C19,26.3,18.4,25.7,17.8,25.6L17.8,25.6z M17.8,25.6"/>
		<path class="st1" d="M42.6,20.1c0-0.4,0.1-0.9,0.1-1.3c0-0.5,0-0.9-0.1-1.3c-0.1-0.7-0.6-1.5-1.2-1.7c-1.8-0.8-4.1-1.4-6.9-1.9
			c-0.7-0.1-1.2,0.4-1.1,1c0.1,1.3,0.1,2.6,0.1,3.9c0,1.3,0,2.6-0.1,3.9c0,0.7,0.4,1.1,1.1,1c2.8-0.5,5.1-1.1,6.9-1.9
			C41.9,21.6,42.5,20.7,42.6,20.1L42.6,20.1z M42.6,20.1"/>
		<path class="st1" d="M32.9,27c-0.4,2.4-0.9,4.6-1.6,6.5c-0.2,0.6,0.1,1,0.7,0.7c4.3-1.7,7.8-5.1,9.5-9.5c0.2-0.6-0.1-0.9-0.7-0.7
			c-1.9,0.7-4.1,1.2-6.5,1.6C33.6,25.7,33,26.3,32.9,27L32.9,27z M32.9,27"/>
		<path class="st1" d="M34.2,11.9c2.4,0.4,4.6,0.9,6.5,1.6c0.6,0.2,1-0.1,0.7-0.7c-1.7-4.3-5.1-7.8-9.5-9.5C31.4,3,31.1,3.3,31.3,4
			c0.7,1.9,1.2,4.1,1.6,6.5C33,11.2,33.6,11.8,34.2,11.9L34.2,11.9z M34.2,11.9"/>
	</g>
</g>
</svg>
