<?xml version="1.0" encoding="utf-8"?>
<!-- Generator: Adobe Illustrator 18.1.1, SVG Export Plug-In . SVG Version: 6.00 Build 0)  -->
<svg version="1.1" id="Layer_1" xmlns="http://www.w3.org/2000/svg" xmlns:xlink="http://www.w3.org/1999/xlink" x="0px" y="0px"
	 viewBox="0 0 164 117.3" enable-background="new 0 0 164 117.3" xml:space="preserve">
<g>
	<g>
		<path fill="#FFFFFF" d="M29.8,94.6l1.1-5.4h1l-0.4,2.2c0.3-0.5,0.7-1.1,1.2-1.6c0.5-0.5,1-0.8,1.5-0.8c0.2,0,0.4,0.1,0.6,0.2
			c0.2,0.1,0.2,0.4,0.2,0.7c0,0.2,0,0.4-0.1,0.6l-0.1,0.7c0.4-0.6,0.8-1.2,1.3-1.6c0.5-0.5,1-0.7,1.4-0.7c0.2,0,0.4,0.1,0.6,0.2
			c0.2,0.1,0.2,0.4,0.2,0.7c0,0.2,0,0.4-0.1,0.6l-0.8,3.9h-1l0.8-3.9c0-0.1,0-0.2,0-0.2c0-0.1,0-0.2-0.1-0.3
			c-0.1-0.1-0.1-0.1-0.2-0.1c-0.4,0-1.2,0.9-2.5,2.6l-0.4,2h-1l0.8-3.9c0-0.1,0-0.2,0-0.3c0-0.1,0-0.2-0.1-0.3
			c-0.1-0.1-0.1-0.1-0.2-0.1c-0.4,0-1.1,0.8-2.3,2.3l-0.2,0.3l-0.4,2H29.8z"/>
		<path fill="#FFFFFF" d="M42.5,94.6l0.4-2.2c-0.4,0.7-0.9,1.3-1.4,1.7c-0.5,0.4-1,0.6-1.4,0.6c-0.3,0-0.6-0.1-0.7-0.4
			c-0.2-0.3-0.3-0.6-0.3-0.9c0-0.7,0.2-1.3,0.5-2.1c0.4-0.7,0.8-1.3,1.3-1.7c0.5-0.4,1.1-0.6,1.7-0.6c0.1,0,0.2,0,0.4,0
			c0.1,0,0.3,0.1,0.4,0.1h1l-1.1,5.4H42.5z M43.1,91.2l0.2-1.2c-0.1-0.1-0.2-0.1-0.4-0.1c-0.1,0-0.3,0-0.4,0c-0.4,0-0.7,0.2-1.1,0.5
			c-0.4,0.3-0.7,0.8-1,1.4c-0.3,0.6-0.4,1.1-0.4,1.6c0,0.2,0,0.3,0.1,0.4c0.1,0.1,0.2,0.2,0.3,0.2C41.1,93.8,41.9,92.9,43.1,91.2z"
			/>
		<path fill="#FFFFFF" d="M45.4,94.6l1.5-7.8h1l-1,4.9l2.6-2.5h1.1l-2.6,2.5l2,2.9H49l-2-2.9l-0.6,2.9H45.4z"/>
		<path fill="#FFFFFF" d="M55.3,94c-0.8,0.4-1.6,0.7-2.4,0.7c-0.6,0-1-0.2-1.3-0.5c-0.3-0.3-0.5-0.8-0.5-1.3c0-0.6,0.1-1.2,0.4-1.8
			c0.3-0.6,0.7-1.1,1.2-1.4c0.5-0.4,1-0.6,1.6-0.6c0.4,0,0.7,0.1,0.9,0.3c0.2,0.2,0.3,0.5,0.3,0.8c0,0.4-0.1,0.8-0.4,1.1
			c-0.3,0.3-0.6,0.6-1.2,0.9c-0.5,0.2-1.1,0.4-1.9,0.4c0,0.5,0.1,0.8,0.3,1c0.2,0.2,0.5,0.3,0.8,0.3c0.3,0,0.6-0.1,1-0.2
			c0.4-0.1,0.9-0.3,1.3-0.6L55.3,94z M52.2,91.9c0.6-0.1,1-0.2,1.4-0.3c0.3-0.1,0.6-0.3,0.7-0.5c0.2-0.2,0.3-0.4,0.3-0.6
			c0-0.1-0.1-0.3-0.2-0.4c-0.1-0.1-0.2-0.2-0.4-0.2c-0.2,0-0.5,0.1-0.7,0.2c-0.2,0.1-0.4,0.3-0.5,0.5c-0.1,0.1-0.2,0.3-0.3,0.5
			C52.4,91.2,52.3,91.5,52.2,91.9z"/>
		<path fill="#FFFFFF" d="M59.8,94.6l1.1-5.4h1l-1.1,5.4H59.8z M61,88.2l0.2-1h1l-0.2,1H61z"/>
		<path fill="#FFFFFF" d="M65.2,94.6c-0.2,0.1-0.4,0.1-0.6,0.1c-0.5,0-0.8-0.1-1.1-0.3c-0.2-0.2-0.4-0.5-0.4-0.8
			c0-0.2,0-0.5,0.1-0.8l0.6-2.8H63l0.1-0.7H64l0.2-1l1-0.1l-0.2,1.1h1.4l-0.2,0.7h-1.4l-0.6,2.9c-0.1,0.3-0.1,0.5-0.1,0.5
			c0,0.1,0,0.3,0.1,0.4c0.1,0.1,0.3,0.2,0.5,0.2c0.2,0,0.4,0,0.6-0.1L65.2,94.6z"/>
		<path fill="#FFFFFF" d="M73.4,94.2c-0.7,0.3-1.4,0.5-2,0.5c-0.6,0-1-0.2-1.3-0.5c-0.3-0.3-0.5-0.8-0.5-1.4c0-0.6,0.2-1.2,0.5-1.8
			c0.3-0.6,0.7-1,1.3-1.4c0.5-0.4,1.1-0.5,1.6-0.5c0.4,0,0.8,0.1,1.3,0.2l-0.2,0.8c-0.4-0.2-0.8-0.2-1.1-0.2c-0.4,0-0.8,0.1-1.1,0.4
			c-0.3,0.2-0.6,0.6-0.8,1.1c-0.2,0.5-0.3,1-0.3,1.5c0,0.4,0.1,0.7,0.3,0.9c0.2,0.2,0.4,0.3,0.7,0.3c0.1,0,0.3,0,0.5-0.1
			c0.2,0,0.4-0.1,0.6-0.2s0.5-0.2,0.7-0.3L73.4,94.2z"/>
		<path fill="#FFFFFF" d="M74.9,94.6l1.1-5.4h1l-0.4,2.2c0.3-0.4,0.6-0.9,0.9-1.2c0.3-0.4,0.7-0.7,0.9-0.8c0.3-0.2,0.6-0.3,0.9-0.3
			c0.1,0,0.2,0,0.2,0l-0.2,1.1c-0.1,0-0.3-0.1-0.4-0.1c-0.3,0-0.7,0.2-1,0.5c-0.4,0.3-0.9,1-1.6,2.1l-0.4,1.9H74.9z"/>
		<path fill="#FFFFFF" d="M83.8,94c-0.8,0.4-1.6,0.7-2.4,0.7c-0.6,0-1-0.2-1.3-0.5c-0.3-0.3-0.5-0.8-0.5-1.3c0-0.6,0.1-1.2,0.4-1.8
			c0.3-0.6,0.7-1.1,1.2-1.4c0.5-0.4,1-0.6,1.6-0.6c0.4,0,0.7,0.1,0.9,0.3c0.2,0.2,0.3,0.5,0.3,0.8c0,0.4-0.1,0.8-0.4,1.1
			c-0.3,0.3-0.6,0.6-1.2,0.9c-0.5,0.2-1.1,0.4-1.9,0.4c0,0.5,0.1,0.8,0.3,1c0.2,0.2,0.5,0.3,0.8,0.3c0.3,0,0.6-0.1,1-0.2
			c0.4-0.1,0.9-0.3,1.3-0.6L83.8,94z M80.7,91.9c0.6-0.1,1-0.2,1.4-0.3c0.3-0.1,0.6-0.3,0.7-0.5c0.2-0.2,0.3-0.4,0.3-0.6
			c0-0.1-0.1-0.3-0.2-0.4c-0.1-0.1-0.2-0.2-0.4-0.2c-0.2,0-0.5,0.1-0.7,0.2c-0.2,0.1-0.4,0.3-0.5,0.5c-0.1,0.1-0.2,0.3-0.3,0.5
			C80.9,91.2,80.8,91.5,80.7,91.9z"/>
		<path fill="#FFFFFF" d="M88.3,94.6l0.4-2.2c-0.4,0.7-0.9,1.3-1.4,1.7c-0.5,0.4-1,0.6-1.4,0.6c-0.3,0-0.6-0.1-0.7-0.4
			c-0.2-0.3-0.3-0.6-0.3-0.9c0-0.7,0.2-1.3,0.5-2.1c0.4-0.7,0.8-1.3,1.3-1.7c0.5-0.4,1.1-0.6,1.7-0.6c0.1,0,0.2,0,0.4,0
			c0.1,0,0.3,0.1,0.4,0.1h1l-1.1,5.4H88.3z M88.9,91.2l0.2-1.2c-0.1-0.1-0.2-0.1-0.4-0.1c-0.1,0-0.3,0-0.4,0c-0.4,0-0.7,0.2-1.1,0.5
			c-0.4,0.3-0.7,0.8-1,1.4c-0.3,0.6-0.4,1.1-0.4,1.6c0,0.2,0,0.3,0.1,0.4c0.1,0.1,0.2,0.2,0.3,0.2C86.8,93.8,87.7,92.9,88.9,91.2z"
			/>
		<path fill="#FFFFFF" d="M93.7,94.6c-0.2,0.1-0.4,0.1-0.6,0.1c-0.5,0-0.8-0.1-1.1-0.3c-0.2-0.2-0.4-0.5-0.4-0.8
			c0-0.2,0-0.5,0.1-0.8l0.6-2.8h-0.8l0.1-0.7h0.8l0.2-1l1-0.1l-0.2,1.1h1.4l-0.2,0.7h-1.4l-0.6,2.9c-0.1,0.3-0.1,0.5-0.1,0.5
			c0,0.1,0,0.3,0.1,0.4c0.1,0.1,0.3,0.2,0.5,0.2c0.2,0,0.4,0,0.6-0.1L93.7,94.6z"/>
		<path fill="#FFFFFF" d="M95.1,94.6l1.1-5.4h1L96,94.6H95.1z M96.3,88.2l0.2-1h1l-0.2,1H96.3z"/>
		<path fill="#FFFFFF" d="M99.1,94.6l-0.7-5.4h0.9l0.5,4.3l2.6-4.3h0.9l-3.3,5.4H99.1z"/>
		<path fill="#FFFFFF" d="M107.6,94c-0.9,0.4-1.6,0.7-2.4,0.7c-0.6,0-1-0.2-1.3-0.5c-0.3-0.3-0.5-0.8-0.5-1.3c0-0.6,0.1-1.2,0.4-1.8
			c0.3-0.6,0.7-1.1,1.2-1.4c0.5-0.4,1-0.6,1.6-0.6c0.4,0,0.7,0.1,0.9,0.3c0.2,0.2,0.3,0.5,0.3,0.8c0,0.4-0.1,0.8-0.4,1.1
			c-0.3,0.3-0.6,0.6-1.2,0.9c-0.5,0.2-1.1,0.4-1.9,0.4c0,0.5,0.1,0.8,0.3,1c0.2,0.2,0.5,0.3,0.8,0.3c0.3,0,0.6-0.1,1-0.2
			c0.4-0.1,0.9-0.3,1.3-0.6L107.6,94z M104.5,91.9c0.6-0.1,1-0.2,1.4-0.3c0.3-0.1,0.6-0.3,0.7-0.5c0.2-0.2,0.3-0.4,0.3-0.6
			c0-0.1-0.1-0.3-0.2-0.4c-0.1-0.1-0.2-0.2-0.4-0.2c-0.2,0-0.5,0.1-0.7,0.2c-0.2,0.1-0.4,0.3-0.5,0.5c-0.1,0.1-0.2,0.3-0.3,0.5
			C104.6,91.2,104.6,91.5,104.5,91.9z"/>
	</g>
	<g>
		<path fill="#FFFFFF" d="M31.8,85.3c-1.2,0-1.9-0.5-1.9-1.3c0-0.5,0.2-1.2,0.6-2c2.7-5,6.4-11.1,9.9-17.1c1.5-2.5,3.2-5.2,4.9-8.3
			c1.3-1,3-1.5,4.7-1.3c1,0.1,1.6,1,1.7,2.7c0,0.9,0,1.9,0,3.1c0,1.3,0.1,2.4,0.1,3.3c0.1,1.3,0.5,8.3,0.5,9.6
			c0.1,2.4,0.4,4.5,0.8,6.3c0.4,1.8,0.9,3,1.8,3.8c-1.4,0.9-3,1.4-4.7,1.2c-1.3-0.1-2.2-1.2-2.5-3.7c-0.3-2.1-0.4-4.1-0.6-6.1
			C46.6,75.9,46,76,45.4,76c-2.1,0.1-4.1,0.1-6.1,0.1c-1,0.5-1.4,1-1.8,1.7c-0.5,0.7-1.1,2.1-1.6,3c-0.5,1.2-1,2.6-0.7,3.8
			C34.2,85.1,33,85.3,31.8,85.3z M47,72.8c0-3.1-0.3-9.1-0.5-12.1c-1.7,3.2-4.1,7.5-6.6,12.2h6.1C46.5,72.9,46.7,72.9,47,72.8z"/>
		<path fill="#FFFFFF" d="M72.5,80c0,3.2-6,5.2-9.2,5.2c-4.5,0-6.7-2.1-6.7-6.3c0-7.5,5.8-14.5,12.8-14.5c3.2,0,4.7,0.8,4.7,2.4
			c0,1.4-1.5,2.5-3.5,3.2c-0.5-2.2-1.2-2.9-2.7-2.9c-3.2,0-5.5,4.1-5.5,10.9c0,2.3,0.8,4.2,2.8,4.2c2.7,0,5.3-1.3,7-3.3
			C72.4,79.1,72.5,79.5,72.5,80z"/>
		<path fill="#FFFFFF" d="M85.9,64.3c4.1,0,6.9,2.5,6.9,6.7c0,7-5.5,14.2-12.1,14.2c-4.1,0-6.9-2.6-6.9-7c0-3.6,1.3-6.9,3.6-9.7
			C79.7,65.9,82.6,64.3,85.9,64.3z M84.8,67.1c-3.3,0-5.5,7.2-5.5,11.5c0,2.2,0.7,3.8,2.5,3.8c3.3,0,5.4-7.1,5.4-11.4
			C87.2,68.8,86.6,67.1,84.8,67.1z"/>
	</g>
	<path fill="#FFFFFF" d="M131.6,77.9c-0.4,0-1,0.6-2.2,1.9c-0.7,0.7-1.5,1.2-1.8,1.3c-0.2-0.3-0.4-0.9-0.4-1.6
		c0-1.4,0.6-3.3,1.1-5.1c0.7-2.9,1.2-5.6,1.2-7.3c0-1.6-1.2-2.7-2.9-2.7c-3.1,0-7.2,4.4-9.6,8.7c0.7-2.9,1.4-5.3,1.4-6.8
		c0-1.3-1.1-1.8-2-1.8c-0.8,0-1.9,0.2-3.2,0.7c-0.2,0.1-0.5,0.2-0.7,0.3c0.3,0.6,0.4,1.5,0.4,2.4c0,0.2,0,0.5,0,0.7
		c-0.1,2.1-0.7,5.4-2,9.7c-0.6,2.1-1.4,4.3-2.2,6.3c1.2,0.2,2.2,0.3,2.9,0.3c1.9,0,2.6-0.7,3.1-2c1.8-4.4,2.3-5.9,4.2-8.8
		c1.8-2.8,3.6-5.1,4.6-5.1c0.3,0,0.6,0.2,0.6,0.8c0,0.6-0.5,3.3-1.5,7.5c-0.4,1.7-0.8,3-0.8,4.3c0,2.4,1.4,3.4,3.4,3.4
		c2.6,0,6.6-4,6.6-6.8C131.8,78,131.7,77.9,131.6,77.9z"/>
	<path fill="#00BFD6" d="M146.9,51.5c-4-4.7-11-10.9-11.9-11.1c-1-0.3-10,1.4-15.9,3.3c-6.6,2.1-12.2,6.6-13.1,10.6
		c-0.3,1.1-0.1,2.2,0.4,3c-0.6,1.9-1,3.9-1.1,5.9c1.1-0.8,2.2-1.3,3.3-1.4c0.1-0.8,0.3-1.6,0.5-2.4c0.4,0.2,0.7,0.3,1.2,0.4
		c1.1,0.3,2.4,0.5,4,0.4c0.8,0,1.7-0.1,2.7-0.1c7.3-0.3,17.2,2.4,23.4,6.6c0.8,0.6,1.6,1.1,2.3,1.5c1.9,1.2,3.5,1.8,4.8,1.9
		c-1.1,3.6-3.4,7.2-4.8,9.2c-5.5,7.9-14.6,11.9-21.4,10c-2-0.6-3.9-1.7-5.6-3.2c-0.9,0.8-2,1.3-3.5,1.3c2.3,2.8,4.8,5.1,7.3,6.7
		l0.4,0.2l0.5,0c7.9-0.1,18.6-4.2,24.9-13.2c1.7-2.4,4.5-6.9,5.5-11.4c0.9-0.5,1.5-1.3,1.9-2.4C153.9,63.6,151.4,56.8,146.9,51.5z
		 M149.6,66.7c-0.2,0.6-0.5,0.7-0.6,0.7l-0.1,0c-0.4,0.1-2.1,0.2-4.6-1.5c-0.7-0.4-1.4-0.9-2.2-1.5c-5.3-3.5-9.8-5.8-12-6.3
		c-2.1-0.7-7-1.1-13.3-0.8c-1,0-1.9,0.1-2.7,0.1c-3.2,0.1-4.5-0.9-4.9-1.2l-0.1-0.1c-0.1-0.1-0.3-0.3-0.2-0.9
		c0.5-2.2,4.6-6.2,11-8.3c2.5-0.8,4.5-1.1,7.1-1.3c2.4-0.1,5.7-3.1,7.2-2.7c1.4,0.4,2.5,4.6,4.7,6c2.1,1.3,3.9,3.1,5.5,4.9
		C148.9,59,150.3,64.6,149.6,66.7z"/>
	<path fill="#FFFFFF" d="M108.9,64.4c-2.3,0.1-4.9,3.2-7.7,8.1c0.6-2.5,1.2-4.7,1.2-6.2c0-1.2-0.8-1.9-2-1.9c-1,0-2.3,0.3-3.9,1.1
		c0.3,0.6,0.4,1.5,0.4,2.5c0,2.6-1.3,9.3-4.2,16.7c1.2,0.2,2.2,0.3,2.9,0.3c1.9,0,2.5-0.7,3.1-2.1c2.6-6.6,5-12.3,8-12.3
		c0.6,0,1,0.3,1.4,0.9c1-1.1,1.7-2.2,2.2-3.4c0.3-0.7,0.4-1.3,0.4-1.9C110.7,65,110.2,64.4,108.9,64.4z"/>
</g>
</svg>
