<?xml version="1.0" encoding="utf-8"?>
<!-- Generator: Adobe Illustrator 19.2.0, SVG Export Plug-In . SVG Version: 6.00 Build 0)  -->
<svg version="1.1" id="Layer_1" xmlns="http://www.w3.org/2000/svg" xmlns:xlink="http://www.w3.org/1999/xlink" x="0px" y="0px"
	 viewBox="0 0 52 52" style="enable-background:new 0 0 52 52;" xml:space="preserve">
<style type="text/css">
	.st0{fill:#FFFFFF;}
	.st1{fill:#00BFD6;}
</style>
<g id="Layer_1_1_">
</g>
<g>
	<path class="st0" d="M40.7,25.2c-2.2,0-4.4-0.4-6.6-1.1c-0.5-0.2-1.3,0-1.8,0.4l-4,4c-5.1-2.6-9.4-7-12.1-12.1l4-4
		c0.5-0.5,0.7-1.3,0.4-1.8c-0.6-2-0.9-4.2-0.9-6.4c0-1.1-0.7-1.8-1.8-1.8h-6.4c-1.1,0-1.8,0.7-1.8,1.8c0,17.3,14,31.2,31.2,31.2
		c1.1,0,1.8-0.7,1.8-1.8v-6.4C42.5,26,41.8,25.2,40.7,25.2L40.7,25.2z M38.9,18.8h3.7c0-9.2-7.3-16.5-16.5-16.5V6
		C33.2,6,38.9,11.6,38.9,18.8L38.9,18.8z M31.5,18.8h3.7c0-5.1-4-9.2-9.2-9.2v3.7C29.1,13.3,31.5,15.7,31.5,18.8L31.5,18.8z
		 M31.5,18.8"/>
</g>
<rect x="24.6" y="24.6" transform="matrix(4.402818e-011 -1 1 4.402818e-011 -24.554 76.554)" class="st1" width="2.9" height="52"/>
</svg>
